<global>
amp_veltrack=0
ampeg_attack=0.01
ampeg_release=0.25
xfin_hicc1=24
xfin_locc1=0
xfout_hicc1=127
xfout_locc1=127

<group>
group_label=Group_0-42
lpc_hicc1=42
lpc_locc1=0

<region>
hikey=a#4
hivel=127
lokey=a4
lovel=1
lpc=odGQQo66KcPmYgRDkULxwQj7dEF1bqvBtBpiwNNpzEDj9KZA8qMjwekqCEGZgE3Auq8xQOH23cAQ4PFA+s8PwS7wTkHmNVnANncWwfkjr0CMWDU/4VpVQauJoMH/VxVB
lpc_rms=-23.91
pitch_keycenter=a#4
sample=Flute_nonvib_PP_A#4.opus

<region>
hikey=a#5
hivel=127
lokey=a5
lovel=1
lpc=DAI9QWjpMsG4fyY/m4OeP5XlQz+lK4E/jeXtv4eIJz4tfsQ/lPYkvzM+c75X7zS/mS2uPzwqAb8Rj0I/UzX/v/aYtD8R5AQ/sOhrvmDcXr/LMKg+f2TWP91KID+cAJfA
lpc_rms=-34.63
pitch_keycenter=a#5
sample=Flute_nonvib_PP_A#5.opus

<region>
hikey=a#6
hivel=127
lokey=a6
lovel=1
lpc=XpZEQo7tgMCOnzHBRZilwNlJhT8/MZZAkweHQIcfkkGjQyBA3A1cv7yvQj9ntofAjjwJwWw818HIKuU//aXnQDCau0Bd2tjA0XF/wMDinT+H4SrBNJ7owH1uSr+a6q0/
lpc_rms=-14.66
pitch_keycenter=a#6
sample=Flute_nonvib_PP_A#6.opus

<region>
hivel=127
key=c4
lovel=1
lpc=ySyYQszxPMP8NhFDYcOOwWVJ9cDqIabBjWssQTk7xkAQogu/j2drwPMHMkADeYo9VdmBv5UlDMCcSf4+75U9QNVzIj+S1A7ATXkhwGzBWL+UAJpAD0cjQKstycDY0xhA
lpc_rms=-27.32
sample=Flute_nonvib_PP_C4.opus

<region>
hikey=c5
hivel=127
lokey=b4
lovel=1
lpc=JEJlQvA8/sKQr7JCLmqLwYFXoECnMIPAO7+owJ1wKEFRZrnAxB7swBrwPkCtK9lANllXQC6SsMCsyI6/LLmav9p6C0GzKh3BmkBVQPzcmL9vJl1AiYINP3B73cBtgr9A
lpc_rms=-26.16
pitch_keycenter=c5
sample=Flute_nonvib_PP_C5.opus

<region>
hikey=c6
hivel=127
lokey=b5
lovel=1
lpc=NFqnQaR/N8HrlxFAMF67P6zc37yZFpo+OhQHP4WBsL4dcDO/W+TbP5q40z76X+a//Aq7PxbLiz0TrnY/ku9rvwR6Kz/WoZs94VQpPrMLmb2FwTFAHfiKwCdf/sBwuua/
lpc_rms=-28.57
pitch_keycenter=c6
sample=Flute_nonvib_PP_C6.opus

<region>
hikey=c7
hivel=127
lokey=b6
lovel=1
lpc=qugWQpBbGcETZT/BPee4P03Amj8XMxNAzQwLQa0K+ECIVV+/q72pvXBB+8B7YW/BnLk6Prh7S0HpztFA+RyIv7iGF8DsFXzAD2jwwHonPMDyiD9AuB4KQRxTVMBsBj7B
lpc_rms=-12.98
offset=10265
pitch_keycenter=C7
sample=Flute_nonvib_PP_C7.opus

<region>
hikey=d4
hivel=127
lokey=c#4
lovel=1
lpc=xAeHQjrNMcNAOhZD8UHrwVCzUMDk/ovBuM/IQD0sFEFd/YTA58GwwMCqvEDH6YI/akm7v94CE8DMOay8Hc6XPgl/yEBTbmXAMPpowAFMur+lN5BAHx/UP7rLZ8DxpaI/
lpc_rms=-27.14
pitch_keycenter=d4
sample=Flute_nonvib_PP_D4.opus

<region>
hikey=d5
hivel=127
lokey=c#5
lovel=1
lpc=10w6Qv65w8Jf3YJCmTFVwTnBEkH33+bAeQzNwFZTTkFvsTLAmE00wWj3MUEchZjAM0gpQeGHOcEEU3vA5kUPQZzS8j/tbbPAQxBVQPMyEEGWG13BbbkqQQ5rfcGaTDxB
lpc_rms=-24.78
pitch_keycenter=d5
sample=Flute_nonvib_PP_D5.opus

<region>
hikey=d6
hivel=127
lokey=c#6
lovel=1
lpc=09nXQRkZLsEpaH+/+RehvznN2L+uPfs/ILjoP11kmL9cRChAglwuwIyyLkBz1iLAhBFyQI2mk79bfYg/TJAAQNWnKMDcKIc/4RISQIyJVMCVd1PBkHSIwAmixUCl7QtA
lpc_rms=-25.27
pitch_keycenter=d6
sample=Flute_nonvib_PP_D6.opus

<region>
hikey=e4
hivel=127
lokey=d#4
lovel=1
lpc=CrCwQtzBYcNMITtDkBoiwivz0D+PTpjB/LpEQEbSkEBSJR9Bpm6CwfwmMUHFQ9HAAHu6QEW9x8AUYpNAf1MjwKTPkEBUZJK/rVIhwCKaCcBh3Kg/bzqvQIWw58AhJWpA
lpc_rms=-24.60
pitch_keycenter=e4
sample=Flute_nonvib_PP_E4.opus

<region>
hikey=e5
hivel=127
lokey=d#5
lovel=1
lpc=c7wFQpMqc8Kk6ShCQthrwRx7mT9MvqJA7F6swKO5DEHKxHa/ee8SwQV+SEHmlwjBDLgUQJduhr+MmPY/G8Lvv2V1qkAjpYM/mVRlv6SsVz+Qj1nA0b3kPSh5Q8CFredA
lpc_rms=-26.55
pitch_keycenter=e5
sample=Flute_nonvib_PP_E5.opus

<region>
hikey=e6
hivel=127
lokey=d#6
lovel=1
lpc=8tV8Qc5VAcFJxRM9WJGDP5nBicCA61VAdKqKP/Q+GL+a7DE/yL6GPRFKcUB4pmvAUWFdQPf1a7+jrYY/EsOaP3nHxT8WBKvAkUuzwFpwhz+pSW1AKmR+v2sNg0CD29a/
lpc_rms=-29.34
pitch_keycenter=e6
sample=Flute_nonvib_PP_E6.opus

<region>
hikey=f#4
hivel=127
lokey=f4
lovel=1
lpc=9zBLQrHbBsOuaehCw/rHwfSW2z/iIGXBTi4SwKUXV0B60IlBFs13wcrYUECakbc84jCAPwtiiMBhEBhAhozOvaGkOUCXNz7AEaP0P26LZ7+2EIDAnbM2QQgrPsERYpJA
lpc_rms=-28.37
pitch_keycenter=f#4
sample=Flute_nonvib_PP_F#4.opus

<region>
hikey=f#5
hivel=127
lokey=f5
lovel=1
lpc=aMNSQk8JnsKn8fdBtwAMQJoAVEGMTWzA9c7EvyEfJsF9Z4JBdvzxwHQfukDUmMe/XXTrQL/9w8DKn49AuWuCwMfkv0DSV6s/TQJ/vhNzxkBTTNbAp/yLQOTdqsARiy9B
lpc_rms=-21.26
pitch_keycenter=f#5
sample=Flute_nonvib_PP_F#5.opus

<region>
hikey=f#6
hivel=127
lokey=f6
lovel=1
lpc=RW/kQQ6EcMGsOaLA7/cuQGUuesD+AQVB4CzbP4o6oz9SRHo/JPr/PQW+BD/VTeK/02sTQIGEzr8QOExAnPexwIFbk8FN25xAnYkMQeuLC7/7Sw0/tHikwMdIG8DtcAPA
lpc_rms=-22.29
offset=12865
pitch_keycenter=f#6
sample=Flute_nonvib_PP_F#6.opus

<region>
hikey=g#4
hivel=127
lokey=g4
lovel=1
lpc=b19fQuNB/MJsFrpCkwa4wVoeZkGEAGrB7BBEwEeyOMCDp4hBPZZawWtF2kDTjqTAMAKgQN5yTcALCoxAyAf4wDUf1EAI3+2//o4BQEu5Rr5nirDAG0KCQN2dgcAXqJhA
lpc_rms=-27.67
pitch_keycenter=g#4
sample=Flute_nonvib_PP_G#4.opus

<region>
hikey=g#5
hivel=127
lokey=g5
lovel=1
lpc=f4qUQUmCxcHG7iVA3G6fQD+njUC/ORHAGE78v4thxb/EULNAMSNzwCeZ3b6igEm7QoRCQPtMRsC/e7NABkHBwBSaKUB/Y9G+b19HPzG25r9n5YQ+dy0BQOJvZEAombDA
lpc_rms=-26.61
offset=16302
pitch_keycenter=g#5
sample=Flute_nonvib_PP_G#5.opus

<region>
hikey=g#6
hivel=127
lokey=g6
lovel=1
lpc=323KQbxItcDpFqm+LUKgwBgoJD85Ge9A9i/PPyYhRj8+CbFAUzfGvpGibUD8gEHAcBKWQLKEJMCyXWLBBQSUwBsvQkC/XLpAUrz3vlTDHsBZQ4jAdQGXP+nrV8D0m92/
lpc_rms=-23.54
offset=6077
pitch_keycenter=g#6
sample=Flute_nonvib_PP_G#6.opus

<group>
group_label=Group_43-84
lpc_hicc1=84
lpc_locc1=43

<region>
hikey=a#4
hivel=127
lokey=a4
lovel=1
lpc=Esj6QS1ipMJCZJxCUI4IwpJ57kB/ZNy/RIdwQc6osMEIRj5BveYgwU1SOkGKjmXBeTClQXALXMHjjvJA2ysBwTz9CEA+nw6/7YG0P/IhMz+7Itk/Tv1OQPp2NMERF8lA
lpc_rms=-18.68
pitch_keycenter=a#4
sample=Flute_nonvib_MF_A#4.opus

<region>
hikey=a#5
hivel=127
lokey=a5
lovel=1
lpc=xhQjQky1J8LnjuhBF2I4v6hkaEAS+F1AJizUQPiSukDHVbO/KdAVQRyzvkAXMOTAKmmIQe6IEEDrTww/xsPsP4MUakEmJATBMyRGQZ+ZhUCEBPs/rrAeQHyQT0GSUXzA
lpc_rms=-15.07
pitch_keycenter=a#5
sample=Flute_nonvib_MF_A#5.opus

<region>
hikey=a#6
hivel=127
lokey=a6
lovel=1
lpc=FWhfQo2Bv8FRqz/BcQs0QS9SH8AQn2A/afkYQahYTEHIJFbAqF6zQL3nRkCgXmHAL0VBweDHBMLnb5xBW7yHQJ6EQkCClDLACzqlwGdh0r/e2/7AcIjbwN0QbUCHwMY/
lpc_rms=-10.50
pitch_keycenter=a#6
sample=Flute_nonvib_MF_A#6.opus

<region>
hivel=127
key=c4
lovel=1
lpc=OIjYQX/OjML104NCdAbUwfhFNUDnQsxAcw9MwOmn98DbDRlBarsewTlOQ0ElKBPBfgDvQHDG3cDFXLBAoQqMwJ6fgEA9dp/Ao2mgQLnV0cDZC+9AxWHjvyxpUcCTgec/
lpc_rms=-25.17
sample=Flute_nonvib_MF_C4.opus

<region>
hikey=c5
hivel=127
lokey=b4
lovel=1
lpc=IuCHQTF3LMJxdR5CU+9FwdMHcsDaqpFAgIQYvtC0SMCRsJNAMaepwO7HnUDq44zAv1GOQI50JMBq+9k/LcyJwERwlUDehdC/v3pmP6jbz74DMye/uCGYvfSmpj2d6Qk/
lpc_rms=-23.47
pitch_keycenter=c5
sample=Flute_nonvib_MF_C5.opus

<region>
hikey=c6
hivel=127
lokey=b5
lovel=1
lpc=qjBXQrdJGsJLMMdBOzZJwZR+v0CfMfW/zDhoQNuyyL+xQOm/XNhkQLb2ZsCm8YNATuATQElx1MDhxONAUsrHwAd4q0AACKy+S3TTPeF0Sj4ajnfAk99QQdEpAcJzn9/A
lpc_rms=-17.10
pitch_keycenter=c6
sample=Flute_nonvib_MF_C6.opus

<region>
hikey=c7
hivel=127
lokey=b6
lovel=1
lpc=CnnsQXpD8cCaI9nA+M3zPxzawr+Jpl1AFjMeQVsRTUALMtk/BhI7wF9KG8AMYF/B+YROwDQgNEGvVm0/0TsoP4zRtb/6SdnANDzGwPopwr+2sP8/xay8QCgHh8C1IsHA
lpc_rms=-13.07
pitch_keycenter=C7
sample=Flute_nonvib_MF_C7.opus

<region>
hikey=d4
hivel=127
lokey=c#4
lovel=1
lpc=lnXsQUI6osKG46VC/nwhwrEmLUEZx6w/mPEgQBuijcHLnblBNrahweQCdEEwvRvBhN0KQTQ45cB2j4ZA5vmMwHhh20A4ZwLBwfmlQBPVOcDEA75ASTEAwZBCpUBhzKK/
lpc_rms=-23.59
pitch_keycenter=d4
sample=Flute_nonvib_MF_D4.opus

<region>
hikey=d5
hivel=127
lokey=c#5
lovel=1
lpc=JwG7QfRsSsIRkhxCUYhxwYuHoUBzKfA+VCHDQHolc8Fdh0pBloP1wDqOd0Aqlq+/zNMKQZt1NsGWtBpA5lAEQN1tOb8cR4s/aOqvP9u3gMDvIfpA95/+wJcmFb8/koFA
lpc_rms=-21.40
pitch_keycenter=d5
sample=Flute_nonvib_MF_D5.opus

<region>
hikey=d6
hivel=127
lokey=c#6
lovel=1
lpc=n06DQgOFFcIP5gzBFKhtQeHpOsAeNgBBxRGPwMLoHUGdHFLA24TvQN7Plb8w1zdA623NQPY1FsAK/aFAKMzFP0kIi0C1bOg/VjV/OwcTKUFINTnCLdpewFfHC0J2FS7B
lpc_rms=-15.52
pitch_keycenter=d6
sample=Flute_nonvib_MF_D6.opus

<region>
hikey=e4
hivel=127
lokey=d#4
lovel=1
lpc=rHoRQrLPwMIqHrlCgtEfwrTuD0EBunRAV7aswKQXiMAVeSlBKvk1wR/u+0DayFTA0VgXQH75zr+fknpA0cv6wOkh20AI9ZTADBxkQLYwKsAPkKZAbyIKwfp+9EAZTjXA
lpc_rms=-20.64
pitch_keycenter=e4
sample=Flute_nonvib_MF_E4.opus

<region>
hikey=e5
hivel=127
lokey=d#5
lovel=1
lpc=im4aQn4+jsLnHTZCJOEowZppfEA1tLfAGLLJQIDS+D9UVLK//qdcwLOzyECe3pfASBKIP+I8lcBtuzRBsyXewIxRK0EPz2XBYSQfQTg1csCbEONAfhuEwNAOJcHHUklB
lpc_rms=-18.77
offset=4778
pitch_keycenter=e5
sample=Flute_nonvib_MF_E5.opus

<region>
hikey=e6
hivel=127
lokey=d#6
lovel=1
lpc=bAgLQtEOrcEaClpAGuVdQACjtsAPf8tAIPomQJCuaL96NfxA+jOYwFUgGEEceSXAV3ByQHYfJUB+qNI/WDoSQP4NjEBylE3AtBS0wXdbS0FYcshAK/5xwGcX60CBmCXA
lpc_rms=-18.88
pitch_keycenter=e6
sample=Flute_nonvib_MF_E6.opus

<region>
hikey=f#4
hivel=127
lokey=f4
lovel=1
lpc=/SEkQhG/3sLAodpCw5A+wuONj0ECQ5HB1C+ZQbhnb8FWI71AgjOnwPqGmECyBudAtOPwwNNjV7/eDAG/GxVCQK5LV8Dqqao/OIV9QKTagMBi0+w/4XqiwIe75UD31EjA
lpc_rms=-20.45
pitch_keycenter=f#4
sample=Flute_nonvib_MF_F#4.opus

<region>
hikey=f#5
hivel=127
lokey=f5
lovel=1
lpc=ZYdBQtrbm8JazU9Cq7B0wMZ5l8Ga8IhB17WxPgXQrcBOlhxB3RGbwN/J2UDKZY3A7wjqQAUGZcEdpKdBcKIDwRXIhUC5RJg/PTacP+v7KcHUVJZBfnm5wC/8o8A2hjpB
lpc_rms=-13.67
pitch_keycenter=f#5
sample=Flute_nonvib_MF_F#5.opus

<region>
hikey=f#6
hivel=127
lokey=f6
lovel=1
lpc=nIcQQgAxoMHvzOO/9cerQE6RisAFYxdBGTdaQHVJy72Lqco/p8aHOlt8mUB7sVjAYZjGQKktN8BhP7RA1NNWwG023cGTsVxB+s3hQMsyeMDhaIdAF7XRwIKfNMBsQOs/
lpc_rms=-16.12
pitch_keycenter=f#6
sample=Flute_nonvib_MF_F#6.opus

<region>
hikey=g#4
hivel=127
lokey=g4
lovel=1
lpc=IVjAQSMQe8KssmhCMcKlwTykVkCqRqPA2sgKQckeMsFw2yNBjYkBwQAV7UAVQuzAaYUEQYTD7cB33fVADlX0wGUhbD+ZkNw/h4cTQHBJD8CO2fA+mn9tvajLs77sLcs+
lpc_rms=-22.03
pitch_keycenter=g#4
sample=Flute_nonvib_MF_G#4.opus

<region>
hikey=g#5
hivel=127
lokey=g5
lovel=1
lpc=/K/zQdwiNcLcI+JB9HMTwXA4hUATuPG/IYX2QHe6zr872do/PSihwKMP9EBDNO7A6HfMQDEbWT8srrFArhKdwGxFm0B+bODAx5rcQLRBCMCVYAhA/TCLQGaNJj+VVp+/
lpc_rms=-17.17
pitch_keycenter=g#5
sample=Flute_nonvib_MF_G#5.opus

<region>
hikey=g#6
hivel=127
lokey=g6
lovel=1
lpc=ttxnQs9bCMJQt8LAs/xgQUjvJcFlI15B+W0tQOl96j9UIdVAJX3Wv8ZCh76A98Q+fXbLP5lPUD8SOSTCZNACv5eRy0GpREzBkwRwQHQ8ssBOZvfAs3EiP/s36cCtHnU/
lpc_rms=-11.61
pitch_keycenter=g#6
sample=Flute_nonvib_MF_G#6.opus

<group>
group_label=Group_85-127
lpc_hicc1=127
lpc_locc1=85

<region>
hikey=a#4
hivel=127
lokey=a4
lovel=1
lpc=/q7kQS69mcI1lJlCj2wewn2MrEF4jjLBAuBTQJr+zr9FF5vAmxZeQFfRMD9jmUQ+jOGlQIznzL/YDrfA7aFYwD2VLUEkTh/BZ3DfQPRz9r3MM1Q+A1JXwAMwyj7lga0/
lpc_rms=-18.06
pitch_keycenter=a#4
sample=Flute_nonvib_FF_A#4.opus

<region>
hikey=a#5
hivel=127
lokey=a5
lovel=1
lpc=1cOSQUbkz8Hub4RBnVYdwYEJ6kAn50XAVKcbvrYbJECYZyLAzqU3P8GhC0C+EBLAICMaQGf5wMAExwNBLFXOwG0pxUCk6dPAxLfjQNl5wsCvtIZAwoXTvwz1KkDVva/A
lpc_rms=-19.01
pitch_keycenter=a#5
sample=Flute_nonvib_FF_A#5.opus

<region>
hikey=a#6
hivel=127
lokey=a6
lovel=1
lpc=ofqIQmEJk8FMTJHBv/3NP9naRUHAlD9BeHJqQYIFL0EOlrpAq6yaQIFNg0DJ72pBuH0mwaK+P8K239dBSJ2yQQeJoECd9d7AyZCXwG6O9MAm6BXAl9vmvIXLikCsAoq/
lpc_rms=-6.18
pitch_keycenter=a#6
sample=Flute_nonvib_FF_A#6.opus

<region>
hivel=127
key=c4
lovel=1
lpc=9uO5QRf7a8KpHExCxxeAwTnQS0D4iKM+eAgjwKFaRcB6T6BA9kK6wAgq9UCe3qzAVxGyQF7bw8A3xmtAynI3wK9gCkChJJy/+HwqQAhZBsArwtO+T9EAvyOgMUA7k+a/
lpc_rms=-23.94
sample=Flute_nonvib_FF_C4.opus

<region>
hikey=c5
hivel=127
lokey=b4
lovel=1
lpc=XU+/QW33fMJmKIJCqCMUwpYBkEFetlXAZtuXwOqhacB+I0BBlzDlwOBumr8OTUxAQQlaQMG66MBZXBdAO8ncvkYtokDyAhPB9OMmQZ79C8FjKlJARKLeQDa3O8F00KtA
lpc_rms=-17.43
pitch_keycenter=c5
sample=Flute_nonvib_FF_C5.opus

<region>
hikey=c6
hivel=127
lokey=b5
lovel=1
lpc=m0yJQuLTDMKBnIpBkb4owd0P5UDq2ylAG6g9wN3MZEAreLDA9DG6PkGFRkBs66Y/bJKLQH4A/MDUpyxAjgdBwOEV7ECdfT3Ai64NQGjE7z7ksxTBjTJ2Qb6E8MFJ6LTB
lpc_rms=-11.37
offset=13061
pitch_keycenter=c6
sample=Flute_nonvib_FF_C6.opus

<region>
end=313473
hikey=c7
hivel=127
lokey=b6
lovel=1
lpc=jvNdQRtEmcBM/Y2/soIAQE+pWb5QW5k+EIuIQB3aLj+VpsU/yOcVP4fxeD8AiJPAejxcvwYFrEDxxoo+sDL/PjyFfj/BXq++chAFwBK4Cz9yPC8/eHyoPxrPJsCEhPO/
lpc_rms=-20.97
pitch_keycenter=C7
sample=Flute_nonvib_FF_C7.opus

<region>
hikey=d4
hivel=127
lokey=c#4
lovel=1
lpc=OXbhQXIbl8JltJVCtVgewiZsuEEXeyfBhkfWv7z5b78nOolAeSaGwHZTr0BjDxHAKCKlPJv7eMC8jZpARworwHG7EkCvBpe/8truP20agsDmtU1A+nDgv2fGYz9ynTE9
lpc_rms=-22.70
pitch_keycenter=d4
sample=Flute_nonvib_FF_D4.opus

<region>
hikey=d5
hivel=127
lokey=c#5
lovel=1
lpc=BavkQdqahMIlAFZC3QeRwf2pu0CIfuq/rwxQQDHPrsARiR5AcNA4wJbL3j+xOYQ/AGYXQaM0d8HLBqJAiSPgvzvwRkCAPlhAqR0kPzag88C4/blAFUzYvzWJesAtXo9A
lpc_rms=-16.79
pitch_keycenter=d5
sample=Flute_nonvib_FF_D5.opus

<region>
hikey=d6
hivel=127
lokey=c#6
lovel=1
lpc=zvmeQjt1dcLs68BAKH2hQG4ww0DNXF5AmijRQCM3CcBavUlB4iWpwPZwPEG+91+/D8O4QIzitUD9boS+YjkaQanwA8CfrCJBh5pfwCD0i0FHSGTC8WfIQEa9H0KxJTfB
lpc_rms=-11.92
offset=4645
pitch_keycenter=d6
sample=Flute_nonvib_FF_D6.opus

<region>
hikey=e4
hivel=127
lokey=d#4
lovel=1
lpc=om8bQl79xsKFQ7xCNldUwoJu/kFrKZHANTfawDZlgsC6iohA87iQwE9zTkArG5JAtIkqwEAQJMDwnQNBdqI4wdGw20CTLDnA5YGAQNMtyMD3uspAszLZwORzAEHWwXLA
lpc_rms=-19.66
pitch_keycenter=e4
sample=Flute_nonvib_FF_E4.opus

<region>
hikey=e5
hivel=127
lokey=d#5
lovel=1
lpc=+n9FQrfirMJZc2VCHV+7wc7rBkHxJr8/RX2cQMCO1cAq00VBAvcQwY41Br/KsEQ/auK2QK1bv8A3x60/22JewKmlOkE0xGE/k6IEP+ony7/K+A/Bv3zJQOwdy8DcQDhB
lpc_rms=-14.85
pitch_keycenter=e5
sample=Flute_nonvib_FF_E5.opus

<region>
hikey=e6
hivel=127
lokey=d#6
lovel=1
lpc=LAWEQWrYAcEwRibA/RKHP9Fv5D+3iOU/beuBP4USlz7qf9E/t96IPvConj+DKE8/RpQKP20XoT+jSwo/Qht8P0u9QT8Zrp0/KGJpwSDQzEBosJ5AVbnCvlmaW79ecYS/
lpc_rms=-25.29
offset=10452
pitch_keycenter=e6
sample=Flute_nonvib_FF_E6.opus

<region>
hikey=f#4
hivel=127
lokey=f4
lovel=1
lpc=J9XNQcHuhcJbIYJCEfoPwvAIqEEsvt3A+h8BwMaqbDzULtm/7UghQGkAGMA6mXJAgT23P5Tq6cBU7BBBbvMDwSA2eED+m9K/ZNEoQFMMisC3/sRAY78bwM/137/BrmM/
lpc_rms=-21.86
pitch_keycenter=f#4
sample=Flute_nonvib_FF_F#4.opus

<region>
hikey=f#5
hivel=127
lokey=f5
lovel=1
lpc=zf3kQY7GR8ItSRNCb+ZDwbpyGUCaELI/AiAmQMHdScCT9qhAo2r7v37ghr+uerc/AlJdQCb7bsBlgv9Aiekewb7aF0Epl5/A1J8bQdZOI8E/X79ArR+0vsX+VMAmyeJA
lpc_rms=-17.05
pitch_keycenter=f#5
sample=Flute_nonvib_FF_F#5.opus

<region>
hikey=f#6
hivel=127
lokey=f6
lovel=1
lpc=wyKoQitRBcJ6kLvBZvwCQGnLb0EtonJBb/JAQb5hD0HpG+i/IQTbQFpF4ECcZoPAUhQ8QfQcncDz4JFBxRBTwXd9WsLnvT9B0MYbQlNRXj5swSfBo8wwwX+AKMH3/cc/
lpc_rms=-6.88
pitch_keycenter=f#6
sample=Flute_nonvib_FF_F#6.opus

<region>
hikey=g#4
hivel=127
lokey=g4
lovel=1
lpc=rsOzQQ+uYcJEsDxC0/FGwWINYEAlx57AOKfZvjdBsL/G7qVAwik9wHHISUDhdojAAURcQHOkM8A9gkZAnd+lwGhTAEGIPg3BahO+QIqS/7/bXKk/e5/vv9ZbUT8SbrY9
lpc_rms=-20.46
pitch_keycenter=g#4
sample=Flute_nonvib_FF_G#4.opus

<region>
hikey=g#5
hivel=127
lokey=g5
lovel=1
lpc=axdHQeiIj8FAJ0FBFuVTwJSk5j8V6Ss+RGAGQJy1jb+yajQ/BvfgPgr/jT98Ip0+s7AxP3o2MUBgjp7AOiKQQFC/GEDSPW7ACbpgQIZOO78Y6Dw+uoiDP85Epj+YpW8/
lpc_rms=-23.78
pitch_keycenter=g#5
sample=Flute_nonvib_FF_G#5.opus

<region>
hikey=g#6
hivel=127
lokey=g6
lovel=1
lpc=+T6SQsFJv8EI9qPBMowmQX9lUUFs80FBUejxQFzNjEENbkQ/VxKiQP8dEkFtDxlAduQhQVQX0EA//zDCtk43wVWwJEI4eXZA+EoqwTfxCcCcstPAviDHwAj2lT5h1aI/
lpc_rms=-8.73
pitch_keycenter=g#6
sample=Flute_nonvib_FF_G#6.opus

